<svg width="3081" height="2166" viewBox="0 0 3081 2166" fill="none" xmlns="http://www.w3.org/2000/svg">
<path fill-rule="evenodd" clip-rule="evenodd" d="M267.175 448.235C232.94 457.581 199.705 483.057 181.735 513.728C163.498 544.849 161.194 563.793 161.194 682.567V792.091L169.836 798.891C174.591 802.627 218.048 839.387 266.406 880.572C314.768 921.757 359.656 958.205 366.163 961.568C372.922 965.067 386.459 967.686 397.764 967.686C435.278 967.686 460.003 944.665 469.243 901.135C484.413 829.671 544.656 783.79 617.208 788.446C651.765 790.662 676.146 802.162 710.986 832.668C726.229 846.014 743.228 858.657 748.76 860.76C775.793 871.036 816.597 860.031 832.079 838.284C836.526 832.038 854.811 776.276 874.312 709.461C911.438 582.279 914.823 575.168 938.225 575.168C948.846 575.168 949.109 574.751 946.886 561.43C943.178 539.171 923.329 501.832 905.99 484.493C897.124 475.627 878.821 463.138 865.321 456.742L840.772 445.114L562.347 444.389C349.38 443.836 279.983 444.74 267.175 448.235ZM456.673 486.618C448.72 495.407 448.98 506.613 457.311 514.153C463.169 519.454 475.518 520.216 555.657 520.216C639.789 520.216 647.801 519.666 653.366 513.515C661.32 504.727 661.06 493.52 652.729 485.98C646.871 480.679 634.521 479.917 554.382 479.917C470.25 479.917 462.238 480.467 456.673 486.618ZM1328.78 903.505C1327.35 904.934 1326.19 931.381 1326.19 962.279V1018.45H1337.18C1347.55 1018.45 1348.17 1017.64 1348.17 1003.8C1348.17 990.931 1349.2 989.143 1356.63 989.143C1368.14 989.143 1376.72 996.445 1378.13 1007.46C1379.02 1014.37 1381.79 1016.91 1389.38 1017.78C1398.14 1018.78 1399.46 1017.66 1399.46 1009.19C1399.46 1003.82 1396.75 994.847 1393.44 989.242C1387.85 979.794 1387.85 978.431 1393.44 970.463C1396.75 965.733 1399.46 957.289 1399.46 951.691C1399.46 943.254 1397.88 941.518 1390.21 941.518C1382.83 941.518 1380.5 943.778 1378.73 952.64C1376.39 964.352 1368.25 970.826 1355.87 970.826C1349.02 970.826 1348.36 968.195 1347.39 936.938C1346.43 906.022 1345.68 902.956 1338.86 901.981C1334.74 901.391 1330.21 902.08 1328.78 903.505ZM1480.05 959.835V1018.45H1489.21C1497.94 1018.45 1498.37 1017.44 1498.37 997.038C1498.37 973.764 1504.84 963.499 1519.52 963.499C1531.3 963.499 1538.67 977.193 1538.67 999.119C1538.67 1017.3 1539.21 1018.45 1547.83 1018.45C1556.72 1018.45 1556.99 1017.71 1556.99 992.865C1556.99 969.763 1555.95 966.114 1546.29 955.314C1536.68 944.566 1533.7 943.404 1516.98 943.903L1498.37 944.456V922.838C1498.37 902.219 1497.94 901.219 1489.21 901.219H1480.05V959.835ZM1868.38 922.497V943.771H1849.57C1833.03 943.771 1829.51 945.189 1820.27 955.523C1805.68 971.855 1805.75 991.858 1820.46 1008.32C1829.63 1018.59 1833.57 1020.28 1848.23 1020.28C1862.9 1020.28 1866.83 1018.59 1876.01 1008.32C1886.66 996.401 1886.7 996.166 1886.7 948.786V901.219H1877.54C1868.82 901.219 1868.38 902.241 1868.38 922.497ZM1046.54 943.961C1041.49 949.006 1044.22 987.531 1050.51 1000.13C1059.63 1018.38 1082.23 1026.25 1100.5 1017.54C1112.12 1012 1114.26 1011.97 1124.67 1017.16C1140.46 1025.03 1158.5 1021.04 1170.27 1007.05C1178.49 997.287 1179.65 992.547 1179.65 968.712C1179.65 942.148 1179.43 941.518 1170.49 941.518C1161.78 941.518 1161.33 942.551 1161.33 962.682C1161.33 989.854 1154.28 1000.99 1138.08 999.423L1126.53 998.302L1125.45 969.683L1124.38 941.06L1114.46 942.206C1104.96 943.302 1104.5 944.335 1103.43 967.023C1102.16 994.151 1098.66 1000.13 1084.08 1000.13C1070.38 1000.13 1066.08 991.433 1066.08 963.741C1066.08 942.903 1065.55 941.518 1057.53 941.518C1052.83 941.518 1047.88 942.617 1046.54 943.961ZM1217.32 943.961C1212.86 944.895 1205.03 950.622 1199.92 956.692C1186.67 972.434 1187.22 992.532 1201.33 1008.32C1210.5 1018.59 1214.43 1020.28 1229.1 1020.28C1243.77 1020.28 1247.7 1018.59 1256.88 1008.32C1283.54 978.49 1257.19 935.627 1217.32 943.961ZM1300.29 948.09C1283.9 956.304 1278.68 967.741 1278.62 995.554L1278.56 1018.45H1289.38C1300.2 1018.45 1300.21 1018.43 1301.29 993.723C1302.23 972.13 1303.42 968.536 1310.62 965.378C1318.74 961.814 1322.14 947.643 1315.81 943.727C1314.13 942.69 1307.15 944.654 1300.29 948.09ZM1424.64 947.035C1404.57 957.945 1409.53 982.978 1433.02 989.304C1440.75 991.385 1447.08 994.726 1447.08 996.727C1447.08 1002.96 1435.47 1005.17 1427.81 1000.39C1421.84 996.657 1419.52 996.822 1415.04 1001.29C1407.76 1008.58 1411.59 1013.75 1427.56 1018.16C1464.89 1028.46 1486.96 985.949 1450.58 973.822C1434.24 968.379 1431.47 961.26 1446.15 962.451C1455.59 963.22 1465.4 958.11 1465.4 952.417C1465.4 949.42 1445.22 941.412 1438.29 941.664C1436.07 941.745 1429.93 944.163 1424.64 947.035ZM1590.01 947.786C1565.88 960.169 1560.64 988.143 1578.67 1008.32C1587.84 1018.59 1591.77 1020.28 1606.44 1020.28C1621.11 1020.28 1625.04 1018.59 1634.22 1008.32C1663.6 975.434 1628.85 927.853 1590.01 947.786ZM1679.04 946.881C1660.05 955.139 1655.9 967.979 1655.9 1018.51V1062.9L1665.97 1061.74C1675.47 1060.65 1676.11 1059.41 1677.13 1040.08L1678.21 1019.59L1693.78 1019.93C1714.2 1020.39 1727.75 1011.24 1733.1 993.349C1738.68 974.724 1730.23 955.586 1712.76 947.295C1698.12 940.345 1694.17 940.298 1679.04 946.881ZM1920.62 946.823C1893.68 958.857 1890.83 997.078 1915.63 1013.75C1930.15 1023.5 1939.43 1024.18 1954.05 1016.56C1961.76 1012.54 1965.92 1012.12 1969.4 1015.01C1972.03 1017.19 1978.21 1018.45 1983.13 1017.8L1992.09 1016.62L1981.54 989.242C1975.74 974.182 1967.28 958.15 1962.73 953.611C1951.97 942.859 1935.45 940.195 1920.62 946.823ZM2019.47 945.306C2014.92 947.134 2009.3 952.801 2006.98 957.897C2000.46 972.196 2007.71 984.241 2025.75 989.099C2033.9 991.294 2040.57 994.726 2040.57 996.727C2040.57 1002.96 2028.95 1005.17 2021.3 1000.39C2015.28 996.631 2012.98 996.848 2008.2 1001.62C1997.43 1012.4 2021.73 1023.48 2043.46 1017.71C2069.05 1010.9 2067.16 981.563 2040.57 972.643C2025.87 967.712 2025.28 961.286 2039.63 962.451C2049.08 963.22 2058.88 958.11 2058.88 952.417C2058.88 949.372 2038.53 941.36 2031.78 941.749C2029.56 941.877 2024.02 943.478 2019.47 945.306ZM1215.02 970.199C1207.14 978.907 1207.34 986.546 1215.65 994.071C1224.44 1002.02 1235.65 1001.76 1243.19 993.433C1251.07 984.725 1250.86 977.087 1242.55 969.562C1233.76 961.608 1222.56 961.869 1215.02 970.199ZM1591.45 972.658C1585.89 981.142 1585.89 982.49 1591.45 990.975C1598.35 1001.5 1612.11 1003.1 1620.84 994.378C1628.48 986.729 1628.12 977.002 1619.89 969.562C1610.22 960.806 1598.37 962.096 1591.45 972.658ZM1682.44 967.73C1676.25 973.921 1676.68 990.909 1683.16 996.287C1690.29 1002.21 1707.38 999.738 1712.18 992.085C1718.9 981.333 1710.82 965.521 1697.95 964.25C1691.93 963.656 1684.95 965.221 1682.44 967.73ZM1833.35 971.075C1827.09 977.995 1826.97 979.508 1831.99 988.476C1838.65 1000.37 1851.81 1003.01 1861.36 994.364C1870.2 986.366 1870.31 977.372 1861.68 969.562C1852.61 961.348 1841.62 961.934 1833.35 971.075ZM1924.07 967.895C1921.65 970.313 1919.67 976.577 1919.67 981.816C1919.67 994.093 1925.91 1000.13 1938.59 1000.13C1948.73 1000.13 1956.31 991.733 1956.31 980.486C1956.31 966.825 1933.89 958.07 1924.07 967.895ZM487.904 1065.77L489.077 1146.07L500.067 1161.61C510.966 1177.03 527.39 1187.94 546.777 1192.65C556.767 1195.07 556.851 1194.94 556.851 1176.45C556.851 1159.58 555.972 1157.58 547.634 1155.49C531.383 1151.41 523.88 1137.48 523.88 1111.38V1088.06H540.366H556.851V1071.57V1055.09H540.366H523.88V1020.28V985.48H505.306H486.732L487.904 1065.77ZM828.152 1013.53C811.256 1035.01 837.981 1059.71 857.258 1040.43C861.288 1036.4 864.585 1029.81 864.585 1025.78C864.585 1016.45 852.078 1003.8 842.872 1003.8C838.985 1003.8 832.365 1008.18 828.152 1013.53ZM234.464 1101.99C234.464 1147.33 234.815 1149.46 244.96 1165.45C262.292 1192.79 297.289 1204.34 327.623 1192.76C336.518 1189.36 345.673 1184.32 347.974 1181.55C351.458 1177.35 354.267 1177.95 364.87 1185.14C389.77 1202.04 421.357 1201.42 446.023 1183.55C468.656 1167.16 473.979 1152.11 475.606 1099.96L477.009 1055.09H458.314H439.62V1093.74C439.62 1134.64 435.194 1150.23 421.504 1157.55C410.231 1163.59 393.76 1161.94 383.33 1153.73C373.823 1146.26 373.677 1145.45 373.677 1100.41V1054.68L356.275 1055.8L338.873 1056.92L337.844 1099.73C336.815 1142.43 336.782 1142.58 325.656 1151.94C313.013 1162.58 301.117 1163.78 285.969 1155.94C271.711 1148.57 267.435 1133.62 267.435 1091.18V1055.09H250.949H234.464V1101.99ZM617.801 1060.45C600.462 1066.63 583.284 1082.28 576.55 1098.01C573.235 1105.76 571.505 1124.36 571.505 1152.25V1194.7L588.907 1193.58L606.309 1192.47L607.342 1151.48C608.367 1110.83 608.466 1110.42 619.53 1101.11C631.627 1090.93 642.922 1089.37 657.25 1095.89C672.259 1102.73 677.747 1119.72 677.747 1159.33V1194.7L695.148 1193.58L712.55 1192.47L713.502 1148.51C714.36 1108.97 715.228 1103.9 722.152 1098.13C734.311 1088 753.398 1089.87 765.953 1102.43C776.5 1112.98 776.661 1113.75 776.661 1153.72V1194.3H795.356H814.051L812.758 1149.42C811.618 1109.87 810.435 1102.88 802.771 1090.56C791.15 1071.87 770.8 1059 748.848 1056.46C733.538 1054.69 727.75 1056.04 709.876 1065.49C696.68 1072.47 688.005 1075.18 686.525 1072.79C682.601 1066.44 654.652 1055.24 642.944 1055.33C636.899 1055.37 625.586 1057.68 617.801 1060.45ZM825.913 1059.79C824.92 1062.38 824.558 1093.29 825.111 1128.48L826.118 1192.47L843.52 1193.58L860.922 1194.7V1124.89V1055.09H844.322C834.178 1055.09 827.016 1056.92 825.913 1059.79ZM1046.69 1090.34C1041.83 1095.21 1043.85 1168.29 1049.2 1181.11C1054.78 1194.46 1067.63 1205.29 1077.88 1205.29C1088.02 1205.29 1086.18 1188.98 1075.24 1181.81C1068.01 1177.08 1066.08 1172.74 1066.08 1161.24C1066.08 1148.15 1067 1146.67 1075.24 1146.67C1082.56 1146.67 1084.39 1144.84 1084.39 1137.51C1084.39 1130.24 1082.55 1128.36 1075.43 1128.36C1067.19 1128.36 1066.37 1126.78 1065.35 1109.12C1064.43 1092.99 1063.04 1089.72 1056.77 1088.82C1052.65 1088.23 1048.12 1088.92 1046.69 1090.34ZM1438.69 1090.34C1437.26 1091.77 1436.09 1118.22 1436.09 1149.12V1205.29H1447.17H1458.26L1457.25 1147.59C1456.29 1092.68 1455.88 1089.84 1448.76 1088.82C1444.65 1088.23 1440.12 1088.92 1438.69 1090.34ZM1601.03 1115.29C1597.91 1124.72 1594.21 1128.45 1586.19 1130.21C1580.31 1131.5 1571.34 1137.51 1566.24 1143.56C1545.71 1167.96 1560.41 1203.5 1592.84 1207.85C1611.34 1210.33 1618.61 1219.58 1612.54 1232.91C1604.64 1250.26 1581.27 1247.11 1576.61 1228.08C1574.07 1217.66 1569.29 1212.77 1561.57 1212.67C1554.64 1212.59 1556.06 1238.75 1563.48 1247.91C1594.42 1286.11 1651.31 1249.55 1628.77 1205.96C1624.34 1197.4 1624.34 1195 1628.77 1188.95C1637.88 1176.49 1635.29 1154.8 1623.24 1142.75C1613.48 1133.01 1612.92 1131.1 1616.77 1120.89C1620.24 1111.72 1620.02 1109.09 1615.55 1106.27C1607.03 1100.88 1605.46 1101.86 1601.03 1115.29ZM1643.41 1108.66C1639.83 1118 1650.5 1127.58 1658.72 1122.4C1662.21 1120.2 1665.06 1115.28 1665.06 1111.47C1665.06 1102.04 1646.86 1099.68 1643.41 1108.66ZM2305.65 1108.25C2303.22 1114.58 2310.3 1124.69 2317.16 1124.69C2324.18 1124.69 2330.39 1115.36 2327.82 1108.67C2324.94 1101.16 2308.49 1100.85 2305.65 1108.25ZM1122.07 1130.8C1117.6 1131.73 1109.78 1137.46 1104.67 1143.53C1091.42 1159.27 1091.97 1179.37 1106.08 1195.16C1115.1 1205.26 1119.29 1207.12 1132.99 1207.12C1141.91 1207.12 1151.98 1204.82 1155.36 1202.02C1161.02 1197.32 1161.04 1196.39 1155.61 1190.39C1151.39 1185.73 1146.36 1184.41 1137.95 1185.78C1129.83 1187.1 1124.68 1185.88 1121.33 1181.84C1116.95 1176.56 1119.23 1175.98 1144.4 1175.98H1172.32V1165.05C1172.32 1143.27 1146.52 1125.69 1122.07 1130.8ZM1206.24 1133.66C1189.84 1140.99 1180.86 1160.34 1185.4 1178.56C1189.94 1196.76 1209.29 1210.37 1226.68 1207.6C1243.94 1204.84 1250.04 1199.13 1244.75 1190.66C1241.6 1185.6 1237.65 1184.46 1228.47 1185.95C1213.54 1188.38 1205.29 1182.21 1205.29 1168.65C1205.29 1155.44 1213.57 1148.88 1226.87 1151.54C1240.15 1154.19 1252.78 1143.17 1244.42 1136.23C1235.98 1129.23 1218.75 1128.07 1206.24 1133.66ZM1286.93 1130.8C1282.46 1131.73 1274.63 1137.46 1269.53 1143.53C1261.55 1153.01 1260.24 1158.13 1260.24 1179.93C1260.24 1204.54 1260.51 1205.29 1269.4 1205.29C1278.13 1205.29 1278.56 1204.27 1278.56 1183.88C1278.56 1160.77 1285.03 1150.34 1299.35 1150.34C1312.29 1150.34 1318.86 1161.85 1318.86 1184.51C1318.86 1204.23 1319.32 1205.29 1328.02 1205.29C1336.91 1205.29 1337.18 1204.55 1337.18 1179.7C1337.18 1156.91 1336.07 1152.91 1327.1 1143.06C1317.01 1131.99 1302.48 1127.55 1286.93 1130.8ZM1371.1 1133.8C1344.15 1145.52 1341.29 1183.91 1366.11 1200.59C1380.75 1210.43 1388.59 1210.98 1404.78 1203.29C1433.79 1189.53 1433.79 1147.78 1404.78 1134.02C1390.36 1127.17 1386.41 1127.15 1371.1 1133.8ZM1488.8 1134.15C1458.77 1148.96 1461.59 1194.97 1493.18 1205.39C1517.71 1213.48 1545.94 1194.24 1545.98 1169.39C1546.01 1155.22 1535.21 1139.06 1522.06 1133.56C1506.54 1127.08 1503 1127.14 1488.8 1134.15ZM1644.91 1166.82V1205.29H1654.07H1663.23V1166.82V1128.36H1654.07H1644.91V1166.82ZM1697.15 1133.66C1670.21 1145.7 1667.36 1183.92 1692.16 1200.59C1706.71 1210.36 1715.96 1211.02 1730.71 1203.33C1738.05 1199.5 1742.6 1198.93 1745.18 1201.52C1747.26 1203.59 1753.45 1205.29 1758.95 1205.29H1768.95L1758.86 1177.63C1743.48 1135.43 1724.1 1121.62 1697.15 1133.66ZM1794.45 1133.98C1773.76 1145.22 1778.29 1169.48 1802.28 1175.94C1810.43 1178.13 1817.09 1181.56 1817.09 1183.56C1817.09 1189.8 1805.48 1192.01 1797.83 1187.23C1791.85 1183.5 1789.53 1183.66 1785.06 1188.13C1777.94 1195.25 1781.66 1200.76 1796.21 1204.63C1837.66 1215.66 1856.77 1172.05 1816.18 1159.06C1803.4 1154.97 1803.39 1148.25 1816.16 1149.29C1825.6 1150.06 1835.41 1144.95 1835.41 1139.26C1835.41 1136.26 1815.23 1128.25 1808.31 1128.5C1806.09 1128.58 1799.85 1131.05 1794.45 1133.98ZM1935.48 1133.72C1919.66 1140.6 1912.34 1156.23 1912.34 1183.13V1205.29H1923.34H1934.33V1182.21C1934.33 1156.63 1938.06 1150.34 1953.25 1150.34C1966.42 1150.34 1970.96 1159.2 1970.96 1184.9C1970.96 1205.04 1971.09 1205.29 1981.79 1205.29H1992.62L1993.7 1178.73C1994.76 1152.64 1994.96 1152.15 2005.07 1150.99C2021.5 1149.1 2025.91 1155.65 2025.91 1181.92V1205.29H2036.9H2047.89L2047.88 1182.39C2047.86 1152.93 2039.31 1137.8 2019.29 1131.8C2007.36 1128.22 2002.88 1128.51 1992.28 1133.54C1980.79 1138.99 1978.53 1139.04 1968.85 1133.99C1955.83 1127.2 1950.57 1127.15 1935.48 1133.72ZM2082.29 1131.81C2058.57 1141.82 2050.75 1177.84 2068.45 1195.54C2085.31 1212.39 2112.92 1211.23 2128.02 1193.04C2134.61 1185.1 2136.97 1164.62 2132.61 1153.28C2125.97 1135.97 2099.34 1124.61 2082.29 1131.81ZM2143.15 1131.69C2143.15 1133.53 2150.89 1151.05 2160.35 1170.62L2177.56 1206.21L2195.16 1168.6C2204.83 1147.91 2212.75 1130.39 2212.75 1129.67C2212.75 1128.95 2208.13 1128.36 2202.48 1128.36C2194.04 1128.36 2190.86 1131.13 2184.59 1143.93L2176.96 1159.5L2170.64 1143.93C2165.26 1130.65 2162.77 1128.36 2153.74 1128.36C2147.91 1128.36 2143.15 1129.86 2143.15 1131.69ZM2240.58 1133.95C2234.72 1137.01 2227.77 1142.35 2225.12 1145.83C2218.41 1154.67 2218.91 1181.78 2225.98 1192.57C2234.19 1205.11 2256.53 1211.44 2271.18 1205.37C2291.1 1197.12 2283.91 1185.33 2258.89 1185.21C2250.76 1185.17 2243.9 1183.16 2243.01 1180.56C2241.85 1177.16 2248.61 1175.98 2269.23 1175.98C2294.8 1175.98 2297.01 1175.38 2297.01 1168.47C2297.01 1155.13 2285.89 1138.92 2273.07 1133.56C2257.44 1127.03 2253.76 1127.07 2240.58 1133.95ZM2308 1166.82V1205.29H2317.16H2326.32V1166.82V1128.36H2317.16H2308V1166.82ZM2355.73 1132.43C2344.55 1136.9 2341.1 1142.06 2341.03 1154.47C2340.97 1165.47 2347.02 1171.63 2361.8 1175.58C2367.48 1177.1 2372.11 1180.7 2372.11 1183.57C2372.11 1189.02 2361.98 1189.89 2351.33 1185.35C2347.15 1183.57 2343.93 1185.11 2341.21 1190.2C2337.88 1196.41 2338.56 1198.38 2345.28 1201.97C2357.43 1208.47 2380.32 1207.29 2388.68 1199.72C2396.03 1193.07 2398.18 1177.88 2392.94 1169.64C2391.37 1167.15 2383.56 1162.86 2375.6 1160.11C2359.31 1154.47 2358.03 1148.51 2373.11 1148.49C2393.7 1148.46 2398.38 1138.53 2380.73 1132.38C2367.33 1127.71 2367.58 1127.71 2355.73 1132.43ZM1121.03 1155.83C1117.08 1160.58 1118.82 1161.33 1133.85 1161.33C1148.89 1161.33 1150.62 1160.58 1146.67 1155.83C1144.16 1152.81 1138.39 1150.34 1133.85 1150.34C1129.31 1150.34 1123.54 1152.81 1121.03 1155.83ZM1374.54 1154.73C1372.13 1157.15 1370.15 1163.42 1370.15 1168.65C1370.15 1180.93 1376.39 1186.97 1389.07 1186.97C1399.21 1186.97 1406.78 1178.57 1406.78 1167.32C1406.78 1153.66 1384.37 1144.91 1374.54 1154.73ZM1493.13 1156.09C1481.67 1167.56 1489.18 1186.97 1505.09 1186.97C1517.78 1186.97 1524.01 1180.93 1524.01 1168.65C1524.01 1163.42 1522.04 1157.15 1519.62 1154.73C1513.45 1148.57 1499.97 1149.26 1493.13 1156.09ZM1581.37 1157.04C1573.49 1165.75 1573.69 1173.38 1582 1180.91C1591.68 1189.66 1603.52 1188.38 1610.44 1177.81C1616 1169.33 1616 1167.98 1610.44 1159.5C1603.31 1148.61 1590.01 1147.48 1581.37 1157.04ZM1700.59 1154.73C1698.18 1157.15 1696.2 1163.42 1696.2 1168.65C1696.2 1173.89 1698.18 1180.16 1700.59 1182.58C1703.01 1184.99 1709.28 1186.97 1714.52 1186.97C1726.2 1186.97 1732.83 1180.83 1732.83 1170.01C1732.83 1153.97 1711.48 1143.85 1700.59 1154.73ZM2082.96 1156.09C2071.11 1167.94 2080.09 1186.97 2097.53 1186.97C2102.89 1186.97 2108.69 1183.38 2112.34 1177.81C2117.9 1169.33 2117.9 1167.98 2112.34 1159.5C2105.44 1148.97 2091.68 1147.37 2082.96 1156.09ZM2246.64 1152.69C2237.09 1156.7 2242.64 1161.33 2257.02 1161.33C2267.35 1161.33 2271.51 1159.91 2270.47 1156.75C2268.88 1151.91 2254.37 1149.43 2246.64 1152.69ZM932.671 1311.1C922.468 1345.98 914.332 1366.07 904.477 1380.71C856.448 1452.05 756.417 1468.45 686.338 1416.46C674.56 1407.72 661.631 1396.86 657.605 1392.31C646.823 1380.14 632.411 1373.81 615.467 1373.81C586.376 1373.81 564.402 1393.29 556.804 1425.8C545.136 1475.73 514.095 1515.27 470.569 1535.63C425.317 1556.81 365.478 1553.26 324.219 1526.96C316.16 1521.82 277.081 1489.39 237.38 1454.87C197.675 1420.36 164.293 1392.13 163.194 1392.13C159.608 1392.13 161.091 1683.67 164.773 1703.09C172.562 1744.15 204.141 1786.9 240.318 1805.35C269.937 1820.46 286.236 1821.19 567.842 1820.04L837.109 1818.93L858.302 1810.37C884.09 1799.96 917.988 1769.62 931.297 1745.03C948.322 1713.58 949.245 1698.6 948.091 1472.72L947.014 1262.07L932.671 1311.1ZM1729.25 1321.61C1729.34 1371.45 1731.58 1378.62 1749.99 1388.04C1763.11 1394.74 1769.47 1393.08 1769.47 1382.97C1769.47 1377.93 1767.82 1373.81 1765.81 1373.81C1757.53 1373.81 1747.49 1358.75 1747.49 1346.33C1747.49 1334.46 1748.32 1333.51 1758.73 1333.51C1768.3 1333.51 1769.8 1332.28 1768.81 1325.27C1767.97 1319.37 1764.78 1316.7 1757.56 1315.87C1747.95 1314.76 1747.49 1313.79 1747.49 1294.8C1747.49 1276.01 1746.97 1274.9 1738.33 1274.9H1729.17L1729.25 1321.61ZM2093.35 1279.95C2092.18 1283.01 2091.77 1304.69 2092.45 1328.14L2093.69 1370.77L2105.65 1381.45C2112.23 1387.32 2120.89 1392.13 2124.89 1392.13C2135.39 1392.13 2134.24 1378.33 2123 1369.49C2116.01 1363.99 2113.84 1358.89 2113.84 1347.9C2113.84 1335 2114.78 1333.51 2123 1333.51C2130.32 1333.51 2132.15 1331.68 2132.15 1324.35C2132.15 1317.08 2130.31 1315.19 2123.19 1315.19C2114.95 1315.19 2114.13 1313.62 2113.11 1295.96C2112.15 1279.19 2110.95 1276.58 2103.75 1275.56C2098.89 1274.87 2094.61 1276.67 2093.35 1279.95ZM1609.7 1294.79C1606.05 1304.3 1611.16 1312.15 1620.17 1310.87C1626.22 1310.01 1628.42 1307.26 1628.42 1300.54C1628.42 1293.83 1626.22 1291.07 1620.17 1290.21C1615.21 1289.51 1611.02 1291.34 1609.7 1294.79ZM1067.25 1321.1C1024.34 1342.27 1051.71 1407.14 1097.22 1392.13C1119.15 1384.89 1112.41 1372.17 1086.57 1372.05C1078.45 1372.01 1071.58 1370 1070.69 1367.4C1069.53 1364 1076.29 1362.82 1096.91 1362.82C1122.48 1362.82 1124.69 1362.22 1124.69 1355.31C1124.69 1341.97 1113.57 1325.76 1100.76 1320.4C1085.19 1313.9 1081.72 1313.97 1067.25 1321.1ZM1221.1 1320.56C1202.11 1328.82 1197.96 1341.66 1197.96 1392.19V1436.58L1208.04 1435.42C1217.54 1434.32 1218.17 1433.09 1219.19 1413.76L1220.28 1393.26L1235.84 1393.61C1256.27 1394.07 1269.81 1384.91 1275.17 1367.03C1280.75 1348.4 1272.29 1329.26 1254.83 1320.97C1240.18 1314.02 1236.23 1313.97 1221.1 1320.56ZM1309.04 1321.1C1302.48 1324.34 1294.71 1332.53 1291.22 1339.86C1282.75 1357.71 1288.78 1378.54 1305.32 1388.63C1319.61 1397.34 1330.27 1397.66 1345.44 1389.81C1353.43 1385.68 1357.43 1385.11 1358.38 1387.98C1359.15 1390.26 1364.75 1392.13 1370.84 1392.13C1379.94 1392.13 1381.46 1390.98 1379.32 1385.72C1377.89 1382.19 1373.74 1370.81 1370.09 1360.43C1360.07 1331.91 1356.02 1326.03 1342.5 1320.38C1326.99 1313.9 1323.5 1313.97 1309.04 1321.1ZM1415.46 1320.64C1397.56 1328.17 1392.13 1339.03 1392.13 1367.3C1392.13 1391.34 1392.42 1392.13 1401.29 1392.13C1409.97 1392.13 1410.45 1391.05 1410.45 1371.62C1410.45 1353.55 1411.76 1349.88 1421.44 1340.84C1439.15 1324.29 1435.56 1312.19 1415.46 1320.64ZM1462.91 1321.1C1456.34 1324.34 1448.57 1332.53 1445.09 1339.86C1436.62 1357.71 1442.64 1378.54 1459.19 1388.63C1473.48 1397.34 1484.14 1397.66 1499.31 1389.81C1507.3 1385.68 1511.29 1385.11 1512.25 1387.98C1513.01 1390.26 1518.62 1392.13 1524.71 1392.13C1533.81 1392.13 1535.32 1390.98 1533.19 1385.72C1531.76 1382.19 1527.6 1370.81 1523.96 1360.43C1514.77 1334.28 1507.09 1323.73 1493.92 1319.13C1479.36 1314.06 1476.88 1314.21 1462.91 1321.1ZM1610.87 1317.48C1609.44 1318.91 1608.27 1336.29 1608.27 1356.1V1392.13H1619.39H1630.51L1629.47 1354.58C1628.5 1319.97 1627.84 1316.94 1620.95 1315.96C1616.83 1315.37 1612.3 1316.06 1610.87 1317.48ZM1661.33 1320.67C1645.53 1328.68 1640.39 1339.11 1638.37 1367.31L1636.6 1392.13H1648.08H1659.56V1370.41C1659.56 1345.72 1665.82 1336.09 1680.72 1337.89C1692.38 1339.3 1695.29 1344.83 1698.12 1371.06C1700.19 1390.3 1701.16 1392.13 1709.28 1392.13C1717.7 1392.13 1718.18 1390.96 1718.18 1370.38C1718.18 1358.43 1716.6 1344.5 1714.68 1339.44C1707.59 1320.79 1680.14 1311.14 1661.33 1320.67ZM1799.93 1320.56C1787.72 1325.87 1776.8 1342.37 1776.8 1355.49C1776.8 1377.67 1800.94 1398.47 1821.83 1394.29C1837.64 1391.13 1843.38 1385.51 1839.05 1377.43C1836.28 1372.26 1832.5 1371.23 1821.57 1372.7C1811.52 1374.05 1806.27 1372.93 1802.76 1368.7C1798.35 1363.39 1800.6 1362.82 1825.92 1362.82C1858.29 1362.82 1861.52 1359.8 1851.56 1338.81C1847.44 1330.13 1840.82 1323.48 1833.07 1320.24C1818.31 1314.07 1814.76 1314.11 1799.93 1320.56ZM1887.88 1321.1C1872.74 1328.57 1864.72 1346.07 1864.72 1371.62C1864.72 1391.89 1864.84 1392.13 1875.54 1392.13C1886.36 1392.13 1886.37 1392.1 1887.45 1367.4C1888.39 1345.81 1889.58 1342.21 1896.78 1339.05C1902.46 1336.56 1905.02 1332.3 1905.02 1325.32C1905.02 1313.64 1903.67 1313.32 1887.88 1321.1ZM1939.41 1318.62C1923 1325.61 1916.01 1340.06 1916.01 1366.98C1916.01 1391.36 1916.29 1392.13 1925.17 1392.13C1933.89 1392.13 1934.33 1391.11 1934.33 1370.71C1934.33 1347.61 1940.8 1337.18 1955.11 1337.18C1968.05 1337.18 1974.62 1348.69 1974.62 1371.35C1974.62 1391.07 1975.09 1392.13 1983.78 1392.13C1992.68 1392.13 1992.94 1391.39 1992.94 1366.54C1992.94 1343.78 1991.83 1339.72 1982.87 1329.78C1972 1317.73 1952.97 1312.84 1939.41 1318.62ZM2027.75 1320.13C2013.34 1326.59 2007.67 1333.83 2005.29 1348.76C2002.6 1365.66 2008.89 1379.76 2023.07 1388.64C2042.6 1400.85 2074.73 1392.48 2065.44 1377.59C2062.31 1372.58 2058.15 1371.43 2048.04 1372.79C2038.67 1374.05 2033.34 1372.85 2029.89 1368.7C2025.49 1363.39 2027.73 1362.82 2052.94 1362.82H2080.87V1350.68C2080.87 1326.92 2050.94 1309.72 2027.75 1320.13ZM1072.36 1339.44C1066.49 1345.31 1070.54 1348.17 1084.7 1348.17C1095.03 1348.17 1099.2 1346.75 1098.15 1343.59C1096.49 1338.52 1076.49 1335.31 1072.36 1339.44ZM1224.51 1341.41C1218.31 1347.6 1218.74 1364.59 1225.22 1369.96C1232.36 1375.89 1249.45 1373.41 1254.24 1365.76C1260.97 1355.01 1252.89 1339.2 1240.01 1337.93C1233.99 1337.33 1227.01 1338.9 1224.51 1341.41ZM1314.28 1341.13C1306.92 1345.42 1305.67 1362.82 1312.26 1369.41C1314.68 1371.83 1320.95 1373.81 1326.19 1373.81C1331.42 1373.81 1337.69 1371.83 1340.11 1369.41C1342.52 1367 1344.5 1360.73 1344.5 1355.49C1344.5 1338.98 1329.89 1332.04 1314.28 1341.13ZM1466.13 1341.57C1463.71 1343.99 1461.73 1350.25 1461.73 1355.49C1461.73 1360.73 1463.71 1367 1466.13 1369.41C1468.55 1371.83 1474.81 1373.81 1480.05 1373.81C1485.29 1373.81 1491.56 1371.83 1493.97 1369.41C1496.39 1367 1498.37 1360.73 1498.37 1355.49C1498.37 1350.25 1496.39 1343.99 1493.97 1341.57C1491.56 1339.15 1485.29 1337.18 1480.05 1337.18C1474.81 1337.18 1468.55 1339.15 1466.13 1341.57ZM1805.06 1339.44C1799.19 1345.31 1803.24 1348.17 1817.4 1348.17C1827.73 1348.17 1831.89 1346.75 1830.85 1343.59C1829.19 1338.52 1809.19 1335.31 1805.06 1339.44ZM2032.02 1339.62C2026.36 1345.28 2030.48 1348.17 2044.23 1348.17C2052.29 1348.17 2058.88 1346.69 2058.88 1344.89C2058.88 1338.55 2037.32 1334.31 2032.02 1339.62ZM534.87 1636.37C508.043 1647.39 493.066 1672.91 495.301 1703.8C499.433 1760.92 564.274 1784.89 604.865 1744.3C635.144 1714.02 631.319 1669.6 596.194 1643.59C585.947 1635.99 546.953 1631.41 534.87 1636.37Z" fill="white"/>
<path d="M398.833 1213.15C398.833 1213.68 398.569 1213.94 398.04 1213.94C398.04 1213.94 398.04 1214.21 398.04 1214.74C398.04 1215.27 398.304 1215.53 398.833 1215.53H550.223C554.45 1215.53 556.564 1213.15 556.564 1208.4V988.842C556.564 988.313 556.3 988.049 555.771 988.049H554.979L398.833 1213.15ZM338.594 1302.72C326.969 1302.72 316.665 1298.49 307.682 1290.04C299.227 1281.58 295 1271.28 295 1259.12C295 1229.53 303.455 1203.11 320.364 1179.86L531.2 879.46C548.109 855.153 571.623 843 601.743 843H619.181C631.334 843 641.902 847.491 650.885 856.474C659.868 865.457 664.36 876.026 664.36 888.179V1208.4C664.36 1213.15 666.473 1215.53 670.701 1215.53H708.746C720.9 1215.53 731.204 1219.76 739.658 1228.21C748.113 1236.67 752.34 1246.97 752.34 1259.12C752.34 1271.28 748.113 1281.58 739.658 1290.04C731.204 1298.49 720.9 1302.72 708.746 1302.72H670.701C666.473 1302.72 664.36 1305.1 664.36 1309.85V1376.43C664.36 1388.58 659.868 1399.15 650.885 1408.14C641.902 1417.12 631.334 1421.61 619.181 1421.61H601.743C589.589 1421.61 579.021 1417.12 570.038 1408.14C561.055 1399.15 556.564 1388.58 556.564 1376.43V1309.85C556.564 1305.1 554.45 1302.72 550.223 1302.72H338.594Z" fill="white" fill-opacity="0.15"/>
<path d="M849.709 945.886C849.709 957.723 845.588 967.763 837.344 976.006C829.207 984.249 819.22 988.371 807.383 988.371C795.441 988.371 785.349 984.302 777.105 976.164C768.968 967.921 764.899 957.828 764.899 945.886C764.899 934.05 769.021 924.063 777.264 915.925C785.507 907.682 795.547 903.561 807.383 903.561C819.22 903.561 829.207 907.682 837.344 915.925C845.588 924.063 849.709 934.05 849.709 945.886ZM828.309 945.886C828.309 940.179 826.248 935.265 822.126 931.144C818.005 927.022 813.09 924.961 807.383 924.961C801.571 924.961 796.604 927.022 792.482 931.144C788.361 935.16 786.3 940.074 786.3 945.886C786.3 951.699 788.361 956.666 792.482 960.788C796.604 964.909 801.571 966.97 807.383 966.97C813.196 966.97 818.11 964.909 822.126 960.788C826.248 956.666 828.309 951.699 828.309 945.886Z" fill="white" fill-opacity="0.15"/>
</svg>
